<svg fill="none" height="16" viewBox="0 0 16 16" width="16" xmlns="http://www.w3.org/2000/svg"><g fill="#212121"><path d="m5 1c-1.10457 0-2 .89543-2 2v10c0 1.1046.89543 2 2 2h1.14643c-.13501-.2992-.18484-.6432-.11751-1h-1.02892c-.55228 0-1-.4477-1-1v-10c0-.55228.44772-1 1-1h3v2.5c0 .82843.67157 1.5 1.5 1.5h2.5v1.06135c.3285-.07472.6694-.08119 1-.01939v-1.62775c0-.39782-.158-.77935-.4393-1.06066l-2.91425-2.91421c-.28131-.2813-.66284-.43934-1.06066-.43934zm6.7929 4h-2.2929c-.27614 0-.5-.22386-.5-.5v-2.29289z"/><path d="m11.5183 8.42604c.568-.56805 1.489-.56805 2.0571 0 .568.56805.568 1.48904 0 2.05706l-3.75628 3.7563c-.219.219-.49341.3743-.79388.4495l-1.16504.2912c-.50665.1267-.96558-.3323-.83892-.8389l.29126-1.165c.07512-.3005.23049-.5749.44949-.7939z"/></g></svg>