<svg xmlns="http://www.w3.org/2000/svg" viewBox="211.584 311.93600000000004 382.976 177.152" fill="#ffffff" style="max-height: 500px" width="382.976" height="110.152">
 <g>
  <path d="m475.07 365.23c-2.0156 0-4.0312 1.0078-5.543 2.0156l-77.586 79.098c-3.0234 3.0234-3.0234 7.5586 0 10.578 1.5117 1.5117 3.5273 2.0156 5.543 2.0156s4.0312-0.50391 5.543-2.0156l72.043-73.555 73.555 73.555c3.0234 3.0234 7.5586 3.0234 10.578 0 3.0234-3.0234 3.0234-7.5586 0-10.578l-79.094-79.098c-1.5117-1.5117-3.0234-2.0156-5.0391-2.0156z"/>
  <path d="m319.89 426.7c1.5117 1.5117 3.5273 2.0156 5.543 2.0156s4.0312-1.0078 5.543-2.0156l77.586-79.098c3.0234-3.0234 3.0234-7.5586 0-10.578-3.0234-3.0234-7.5586-3.0234-10.578 0l-73.059 73.555-73.555-73.555c-3.0234-3.0234-7.5586-3.0234-10.578 0-3.0234 3.0234-3.0234 7.5586 0 10.578z"/>
 </g>
</svg>